<svg width="512" height="512" viewBox="0 0 512 512" fill="none" xmlns="http://www.w3.org/2000/svg">
  <defs>
    <linearGradient id="docstalk_gradient" x1="0%" y1="0%" x2="100%" y2="100%">
      <stop offset="0%" stop-color="#6366f1" />
      <stop offset="100%" stop-color="#9333ea" />
    </linearGradient>
    
    <filter id="soft_shadow" x="-20%" y="-20%" width="140%" height="140%">
      <feDropShadow dx="0" dy="10" stdDeviation="15" flood-color="#4f46e5" flood-opacity="0.25"/>
    </filter>
  </defs>

  <style>
    /* Definisi Keyframes untuk denyutan */
    @keyframes pulse-dot {
      0%, 100% {
        transform: scale(1); /* Ukuran normal */
        opacity: 0.8; /* Opasitas awal dari logomu */
      }
      50% {
        transform: scale(1.3); /* Membesar 30% */
        opacity: 1; /* Menjadi putih terang penuh */
      }
    }

    /* Kelas dasar untuk semua titik */
    .dot {
      fill: white;
      stroke: none;
      /* Penting agar titik membesar dari tengahnya sendiri, bukan dari pojok SVG */
      transform-box: fill-box;
      transform-origin: center;
      /* Menjalankan animasi */
      animation: pulse-dot 1.4s ease-in-out infinite;
    }

    /* Memberi jeda waktu agar bergelombang */
    .dot-1 { animation-delay: 0s; }
    .dot-2 { animation-delay: 0.2s; }
    .dot-3 { animation-delay: 0.4s; }
  </style>

  <g filter="url(#soft_shadow)">
    <path d="M256 64C132.3 64 32 149.8 32 256C32 315.3 62.3 368.3 110.5 403.6C107.8 419.2 100.9 442.1 82 463.6C78.3 467.9 81.4 474.7 87.1 474.7C129.3 474.7 171.3 455.8 202.3 435.6C219.3 440.4 237.3 442.9 256 442.9C379.7 442.9 480 357.1 480 250.9C480 144.7 379.7 64 256 64Z" 
          fill="url(#docstalk_gradient)"/>
  </g>

  <g stroke="white" stroke-width="36" stroke-linecap="round" stroke-linejoin="round" fill="none">
    <path d="M190 176C175 176 160 186 160 206V226C160 246 150 256 130 256C150 256 160 266 160 286V306C160 326 175 336 190 336" />
    
    <path d="M322 176C337 176 352 186 352 206V226C352 246 362 256 382 256C362 256 352 266 352 286V306C352 326 337 336 322 336" />
    
    <circle cx="226" cy="256" r="12" class="dot dot-1"/>
    <circle cx="256" cy="256" r="12" class="dot dot-2"/>
    <circle cx="286" cy="256" r="12" class="dot dot-3"/>
  </g>
</svg>