<?xml version="1.0" standalone="no"?>
<!DOCTYPE svg PUBLIC "-//W3C//DTD SVG 20010904//EN"
 "http://www.w3.org/TR/2001/REC-SVG-20010904/DTD/svg10.dtd">
<svg version="1.0" xmlns="http://www.w3.org/2000/svg"
 width="300.000000pt" height="300.000000pt" viewBox="0 0 300.000000 300.000000"
 preserveAspectRatio="xMidYMid meet">
<metadata>
Created by potrace 1.10, written by Peter Selinger 2001-2011
</metadata>
<g transform="translate(0.000000,300.000000) scale(0.100000,-0.100000)"
fill="#000000" stroke="none">
<path d="M1699 2986 c-193 -41 -375 -158 -487 -314 -37 -52 -49 -62 -66 -58
-138 40 -171 43 -258 25 -155 -33 -286 -149 -333 -296 -10 -29 -23 -53 -31
-53 -43 0 -182 -57 -248 -101 -260 -174 -348 -502 -209 -782 74 -148 240 -279
408 -322 90 -23 2042 -23 2130 0 119 31 229 109 299 213 113 165 125 362 34
536 -45 85 -149 187 -235 227 l-68 33 3 97 c8 225 -65 406 -233 574 -105 105
-183 154 -315 196 -115 37 -281 48 -391 25z"/>
<path d="M180 440 l0 -440 1320 0 1320 0 0 440 0 440 -1320 0 -1320 0 0 -440z
m700 0 l0 -90 -85 0 -85 0 0 90 0 90 85 0 85 0 0 -90z m358 -2 l3 -88 -91 0
-90 0 0 90 0 91 88 -3 87 -3 3 -87z m352 2 l0 -90 -90 0 -90 0 0 90 0 90 90 0
90 0 0 -90z m350 0 l0 -90 -90 0 -90 0 0 83 c0 46 3 87 7 90 3 4 44 7 90 7
l83 0 0 -90z m350 0 l0 -90 -85 0 -85 0 0 90 0 90 85 0 85 0 0 -90z"/>
</g>
</svg>
