<?xml version="1.0" encoding="iso-8859-1"?><!-- Generator: Adobe Illustrator 19.1.1, SVG Export Plug-In . SVG Version: 6.00 Build 0)  --><svg xmlns="http://www.w3.org/2000/svg" xmlns:xlink="http://www.w3.org/1999/xlink" viewBox="0 0 50 50" width="50px" height="50px" fill="currentColor"><path d="M49.962,21.444c0.108-0.382-0.02-0.792-0.325-1.045c-0.106-0.088-2.465-1.98-6.266-1.333c-1.066-3.471-3.806-5.063-3.932-5.135c-0.361-0.205-0.812-0.166-1.132,0.099c-0.1,0.083-2.447,2.075-2.077,6.177c0.094,1.03,0.352,1.956,0.769,2.765C36.178,23.43,34.776,24,32.507,24H1.138c-0.484,0-0.898,0.347-0.984,0.823C0.147,24.858,0,25.691,0,26.759c0,0.698,0.067,1.438,0.19,2.195c1.146-0.273,3.224-0.678,2.858-2.024c1.974,2.284,6.734,1.602,7.935,0.476c1.338,1.94,9.127,1.203,9.67-0.309c1.678,1.968,6.875,1.968,8.552,0c0.543,1.512,8.331,2.249,9.669,0.309c0.425,0.398,1.297,0.737,2.33,0.912c0.346-0.662,0.676-1.341,0.978-2.048C48.532,26.192,49.904,21.645,49.962,21.444z"/><path d="M0,29h0.196c-0.003-0.016-0.004-0.031-0.006-0.046C0.124,28.97,0.059,28.985,0,29z"/><path d="M49.857,29c-1.086-0.275-3.435-0.647-3.047-2.07c-1.277,1.477-3.715,1.71-5.606,1.388c-0.122,0.233-0.254,0.454-0.381,0.682H49.857z"/><rect x="26" y="20" fill="none" stroke="#000000" stroke-width="2" stroke-miterlimit="10" width="5" height="5"/><rect x="21" y="20" fill="none" stroke="#000000" stroke-width="2" stroke-miterlimit="10" width="5" height="5"/><rect x="16" y="20" fill="none" stroke="#000000" stroke-width="2" stroke-miterlimit="10" width="5" height="5"/><rect x="11" y="20" fill="none" stroke="#000000" stroke-width="2" stroke-miterlimit="10" width="5" height="5"/><rect x="6" y="20" fill="none" stroke="#000000" stroke-width="2" stroke-miterlimit="10" width="5" height="5"/><rect x="21" y="10" fill="none" stroke="#000000" stroke-width="2" stroke-miterlimit="10" width="5" height="5"/><rect x="21" y="15" fill="none" stroke="#000000" stroke-width="2" stroke-miterlimit="10" width="5" height="5"/><rect x="16" y="15" fill="none" stroke="#000000" stroke-width="2" stroke-miterlimit="10" width="5" height="5"/><rect x="11" y="15" fill="none" stroke="#000000" stroke-width="2" stroke-miterlimit="10" width="5" height="5"/><path d="M0.196,29c0.242,1.469,0.724,3.014,1.482,4.507c5.43,1.278,11.128-0.666,11.185-0.686c0.523-0.182,1.092,0.095,1.273,0.615c0.182,0.521-0.094,1.092-0.615,1.273c-0.192,0.066-3.621,1.238-7.84,1.238c-0.834,0-1.7-0.053-2.577-0.162C5.728,39.265,10.169,42,17,42c10.804,0,19.124-4.591,23.823-13H0.196z M16,33c-0.552,0-1-0.448-1-1s0.448-1,1-1c0.128,0,0.25,0.024,0.362,0.068c-0.122,0.07-0.204,0.202-0.204,0.353c0,0.225,0.183,0.408,0.408,0.408c0.154,0,0.289-0.086,0.358-0.212C16.973,31.735,17,31.864,17,32C17,32.552,16.552,33,16,33z"/></svg>