<?xml version="1.0" standalone="no"?>
<!DOCTYPE svg PUBLIC "-//W3C//DTD SVG 20010904//EN"
 "http://www.w3.org/TR/2001/REC-SVG-20010904/DTD/svg10.dtd">
<svg version="1.0" xmlns="http://www.w3.org/2000/svg"
 width="300.000000pt" height="300.000000pt" viewBox="0 0 300.000000 300.000000"
 preserveAspectRatio="xMidYMid meet">
<metadata>
Created by potrace 1.10, written by Peter Selinger 2001-2011
</metadata>
<g transform="translate(0.000000,300.000000) scale(0.100000,-0.100000)"
fill="#000000" stroke="none">
<path d="M1070 2585 l0 -325 -320 0 -320 0 0 -585 0 -585 1050 0 1050 0 0 910
0 910 -730 0 -730 0 0 -325z m95 -640 l0 -80 -67 -3 -68 -3 0 -184 0 -184 68
-3 67 -3 0 -80 0 -80 -152 -3 -153 -3 0 135 0 135 -47 3 -48 3 0 80 0 80 48 3
47 3 0 128 c0 70 3 131 7 135 4 3 72 5 152 4 l146 -3 0 -80z m933 -52 l3 -133
44 0 45 0 0 -85 0 -85 -45 0 -45 0 0 -135 0 -135 -155 0 -156 0 3 83 3 82 68
3 67 3 0 184 0 184 -67 3 -68 3 -3 69 c-2 38 -1 75 2 83 5 11 35 13 153 11
l148 -3 3 -132z m-670 -210 l3 -83 -86 0 -85 0 0 85 0 86 83 -3 82 -3 3 -82z
m272 2 l0 -85 -85 0 -85 0 0 78 c0 43 3 82 7 85 3 4 42 7 85 7 l78 0 0 -85z"/>
<path d="M665 2660 l-230 -230 233 0 232 0 0 230 c0 127 -1 230 -3 230 -1 0
-106 -103 -232 -230z"/>
<path d="M430 510 l0 -410 1050 0 1050 0 0 410 0 410 -1050 0 -1050 0 0 -410z
m760 220 c44 -23 84 -65 77 -82 -2 -8 -23 -26 -46 -42 l-40 -28 -31 26 c-37
30 -102 35 -138 10 -75 -52 -65 -188 18 -232 35 -18 88 -8 120 23 l28 26 51
-31 c28 -18 51 -36 51 -40 0 -22 -77 -81 -123 -95 -99 -29 -174 -14 -247 52
-112 100 -120 261 -18 363 76 76 203 97 298 50z m447 -2 c29 -11 53 -21 53
-23 0 -3 -12 -30 -27 -60 -20 -41 -31 -54 -43 -49 -91 40 -148 46 -158 16 -4
-12 10 -19 131 -67 84 -34 107 -63 107 -137 0 -69 -26 -113 -83 -138 -56 -26
-147 -26 -228 0 -96 30 -95 29 -64 91 15 30 29 56 31 58 2 2 25 -5 51 -17 68
-29 120 -37 138 -22 23 19 3 36 -70 60 -139 46 -183 114 -141 213 42 100 160
129 303 75z m431 0 c28 -11 52 -24 52 -30 0 -6 -12 -32 -26 -58 l-26 -48 -42
18 c-67 30 -126 30 -126 1 0 -15 17 -25 80 -46 95 -32 135 -62 151 -115 36
-121 -60 -209 -214 -197 -82 7 -166 32 -174 54 -9 23 38 115 57 109 8 -2 43
-14 77 -26 65 -23 113 -21 113 4 0 9 -25 24 -57 35 -139 51 -167 72 -179 136
-11 60 27 138 81 168 57 31 142 29 233 -5z"/>
</g>
</svg>
