<?xml version="1.0" standalone="no"?>
<!DOCTYPE svg PUBLIC "-//W3C//DTD SVG 20010904//EN"
 "http://www.w3.org/TR/2001/REC-SVG-20010904/DTD/svg10.dtd">
<svg version="1.0" xmlns="http://www.w3.org/2000/svg"
 width="300.000000pt" height="300.000000pt" viewBox="0 0 300.000000 300.000000"
 preserveAspectRatio="xMidYMid meet">
<metadata>
Created by potrace 1.10, written by Peter Selinger 2001-2011
</metadata>
<g transform="translate(0.000000,300.000000) scale(0.050000,-0.050000)"
fill="#000000" stroke="none">
<path d="M1400 5810 c0 -184 -2 -190 -45 -190 -73 -1 -310 -92 -411 -158 l-94
-61 -131 130 -130 129 -125 -126 -124 -125 129 -128 130 -129 -41 -61 c-66
-99 -140 -273 -164 -386 l-22 -105 -186 0 -186 0 0 -180 0 -180 185 0 185 0
35 -144 c19 -79 69 -204 112 -278 l78 -134 -128 -127 -127 -126 124 -125 125
-126 130 127 131 127 110 -67 c90 -55 236 -111 415 -159 18 -5 25 -60 25 -187
l0 -181 179 0 179 0 6 183 6 184 114 26 c112 25 305 113 386 174 38 29 48 23
175 -103 l135 -133 125 124 124 125 -133 135 c-126 127 -132 137 -103 175 61
81 149 274 174 386 l26 114 184 6 183 6 0 179 0 179 -181 0 c-127 0 -182 7
-187 25 -47 178 -104 327 -159 419 l-68 112 128 127 127 126 -124 125 -125
126 -130 -127 -131 -127 -110 68 c-108 66 -328 146 -402 146 -35 0 -38 17 -38
190 l0 190 -180 0 -180 0 0 -190z m344 -891 c347 -96 472 -564 229 -852 -198
-235 -617 -219 -807 29 -308 404 84 961 578 823z"/>
<path d="M4580 5810 c0 -168 -4 -190 -35 -190 -61 -1 -252 -100 -351 -183
l-95 -81 -160 91 -159 90 -80 -137 c-102 -175 -106 -163 71 -263 l152 -86 -17
-71 c-20 -90 -20 -330 0 -420 l17 -71 -152 -86 c-177 -100 -173 -88 -71 -263
l80 -137 159 90 160 91 95 -81 c99 -83 290 -182 351 -183 31 0 35 -22 35 -190
l0 -190 180 0 180 0 0 190 c0 171 4 190 37 190 57 0 265 111 359 191 l84 73
95 -55 c52 -30 123 -71 157 -92 l63 -37 82 143 c104 179 109 160 -68 258
l-151 83 16 93 c20 118 20 267 0 384 l-15 91 150 86 c83 48 151 91 151 97 0 5
-37 77 -82 158 l-81 148 -64 -38 c-35 -21 -105 -62 -157 -92 l-94 -54 -106 85
c-112 88 -282 177 -341 178 -31 0 -35 22 -35 190 l0 190 -180 0 -180 0 0 -190z
m360 -1040 l0 -170 -180 0 -180 0 0 170 0 170 180 0 180 0 0 -170z"/>
<path d="M4236 2976 l-6 -183 -101 -23 c-105 -23 -330 -123 -399 -177 -38 -29
-47 -24 -175 103 l-135 133 -125 -124 -124 -125 133 -135 c126 -127 132 -137
103 -175 -61 -81 -149 -274 -174 -386 l-26 -114 -184 -6 -183 -6 0 -179 0
-179 181 0 c127 0 182 -7 187 -25 48 -179 104 -325 159 -415 l67 -110 -127
-131 -127 -130 126 -125 125 -124 126 127 127 128 134 -78 c74 -43 199 -93
278 -112 l144 -35 0 -185 0 -185 180 0 180 0 0 190 c0 184 2 190 45 190 73 1
310 92 411 158 l94 61 131 -130 130 -129 125 126 124 125 -129 128 -130 129
41 61 c66 99 140 273 164 386 l22 105 186 0 186 0 0 180 0 180 -185 0 -185 0
-35 144 c-19 79 -69 204 -112 278 l-78 134 128 127 127 126 -124 125 -125 126
-130 -127 -131 -127 -110 67 c-90 55 -236 111 -415 159 -18 5 -25 60 -25 187
l0 181 -179 0 -179 0 -6 -184z m426 -932 c569 -297 184 -1161 -425 -953 -341
116 -451 557 -210 842 143 169 429 219 635 111z"/>
<path d="M1060 2270 c0 -171 -4 -190 -37 -190 -57 0 -265 -111 -359 -191 l-84
-73 -95 55 c-52 30 -123 71 -157 92 l-63 37 -82 -143 c-104 -179 -109 -160 68
-258 l151 -83 -16 -93 c-20 -118 -20 -267 0 -384 l15 -91 -150 -86 c-83 -48
-151 -91 -151 -97 0 -5 37 -77 82 -158 l81 -148 64 38 c35 21 105 62 157 92
l94 54 106 -85 c105 -83 289 -178 347 -178 23 0 29 -36 29 -190 l0 -190 180 0
180 0 0 190 c0 168 4 190 35 190 61 1 251 100 349 181 113 96 83 97 264 -10
l151 -90 80 138 c103 176 107 164 -70 264 l-152 86 17 71 c20 90 20 330 0 420
l-17 71 152 86 c177 100 173 88 71 263 l-80 137 -159 -90 -160 -91 -95 81
c-99 83 -290 182 -351 183 -31 0 -35 22 -35 190 l0 190 -180 0 -180 0 0 -190z
m360 -1040 l0 -170 -180 0 -180 0 0 170 0 170 180 0 180 0 0 -170z"/>
</g>
</svg>
